#!OML:ASF F:\VICON\USERDATA\INSTALL\rory3\rory3.ASF
:FULLY-SPECIFIED
:DEGREES
3516
root -0.414181 17.6609 -0.626449 193.618 -58.7845 525.941
lowerback 12.2289 2.43635 -3.29777
upperback 1.65799 2.67793 -0.326389
thorax -5.24907 1.33712 1.07428
lowerneck -17.2732 5.7592 -7.57071
upperneck 40.6405 8.64756 2.34181
head 17.3505 1.94804 3.81719
rclavicle -6.38099e-014 1.03368e-014
rhumerus -39.824 -18.8422 -75.2416
rradius 40.3609
rwrist 5.58439
rhand -17.0485 10.8262
rfingers 7.12502
rthumb 9.18859 -18.9536
lclavicle -6.38099e-014 1.03368e-014
lhumerus -30.9378 3.26315 79.1454
lradius 40.4096
lwrist 2.17266
lhand -22.2012 22.3927
lfingers 7.12502
lthumb 4.21446 52.3308
rfemur -18.0479 2.27132 13.9669
rtibia 44.7741
rfoot -24.5326 3.91498
rtoes -0.471636
lfemur -10.3053 0.386579 -24.6519
ltibia 23.8986
lfoot -12.8722 -9.90037
ltoes -5.7969
3517
root -0.447531 17.6486 -0.599149 193.895 -58.6214 525.558
lowerback 12.1859 2.47434 -3.46783
upperback 1.69607 2.69953 -0.430348
thorax -5.18903 1.34778 1.05979
lowerneck -17.2065 5.79926 -7.56684
upperneck 40.582 8.72801 2.27278
head 17.301 1.97709 3.79312
rclavicle 2.18663e-015 -2.70347e-014
rhumerus -39.733 -18.7296 -75.3998
rradius 40.0444
rwrist 5.49072
rhand -16.9236 10.716
rfingers 7.12502
rthumb 9.30902 -19.0585
lclavicle 2.18663e-015 -2.70347e-014
lhumerus -30.8058 3.37723 78.9211
lradius 40.3014
lwrist 1.98701
lhand -22.3466 22.1781
lfingers 7.12502
lthumb 4.07411 52.1189
rfemur -17.941 2.33759 14.2227
rtibia 44.4285
rfoot -24.5557 1.2534
rtoes 0.0386492
lfemur -10.2966 0.852182 -25.0173
ltibia 24.1324
lfoot -13.3986 -10.1063
ltoes -7.33832
3518
root -0.481047 17.6399 -0.572216 193.876 -58.4766 525.547
lowerback 12.1291 2.5252 -3.41085
upperback 1.70106 2.7709 -0.526268
thorax -5.14808 1.38017 0.917759
lowerneck -17.0784 5.82348 -7.52402
upperneck 40.5477 8.71963 2.29481
head 17.2492 1.98807 3.78576
rclavicle 2.14687e-014 -1.82882e-014
rhumerus -39.7308 -18.8159 -75.484
rradius 39.7403
rwrist 5.5995
rhand -17.0464 10.7967
rfingers 7.12502
rthumb 9.19061 -18.983
lclavicle 2.14687e-014 -1.82882e-014
lhumerus -30.7264 3.17193 78.7056
lradius 40.2477
lwrist 2.01657
lhand -22.4576 22.072
lfingers 7.12502
lthumb 3.96693 52.0148
rfemur -17.7967 2.37828 14.6317
rtibia 44.0939
rfoot -24.2674 -1.81867
rtoes 1.10843
lfemur -10.3093 1.33859 -25.1673
ltibia 24.3573
lfoot -13.8986 -10.2737
ltoes -8.66555
3519
root -0.514523 17.6277 -0.543267 193.887 -58.3311 525.487
lowerback 12.1063 2.5574 -3.32515
upperback 1.70665 2.81717 -0.654622
thorax -5.12095 1.39921 0.728812
lowerneck -16.9485 5.88506 -7.41955
upperneck 40.5182 8.76276 2.27582
head 17.2031 2.02255 3.75862
rclavicle 2.68359e-015 -2.3059e-014
rhumerus -39.6828 -18.9017 -75.5803
rradius 39.4396
rwrist 5.66675
rhand -17.3818 10.9489
rfingers 7.12502
rthumb 8.86696 -18.8448
lclavicle 2.68359e-015 -2.3059e-014
lhumerus -30.7154 2.8682 78.4967
lradius 40.2442
lwrist 2.19794
lhand -22.554 21.9968
lfingers 7.12502
lthumb 3.8738 51.9413
rfemur -17.5788 2.32369 14.8864
rtibia 43.7585
rfoot -23.7488 -4.58327
rtoes 2.20804
lfemur -10.2829 1.72423 -25.3259
ltibia 24.5021
lfoot -14.1516 -10.6226
ltoes -8.19155
3520
root -0.548165 17.6167 -0.514211 193.936 -58.2028 525.372
lowerback 12.1294 2.53693 -3.24245
upperback 1.69642 2.79264 -0.759493
thorax -5.13422 1.3844 0.575762
lowerneck -16.8376 6.02877 -7.3169
upperneck 40.5262 8.98244 2.13625
head 17.1817 2.10497 3.7102
rclavicle 1.58034e-014 1.11319e-014
rhumerus -39.6151 -18.8649 -75.667
rradius 39.1477
rwrist 5.74447
rhand -17.3187 10.8925
rfingers 7.12502
rthumb 8.92783 -18.8986
lclavicle 1.58034e-014 1.11319e-014
lhumerus -30.8077 2.85981 78.3052
lradius 40.2725
lwrist 2.43433
lhand -22.8201 22.1886
lfingers 7.12502
lthumb 3.61679 52.1377
rfemur -17.2643 2.38506 15.0043
rtibia 43.4462
rfoot -23.3563 -7.02715
rtoes 2.05949
lfemur -10.1945 1.94955 -25.5049
ltibia 24.5476
lfoot -14.1894 -11.0767
ltoes -6.41888
3521
root -0.583877 17.6231 -0.486421 193.864 -58.1026 525.454
lowerback 12.1007 2.50157 -2.98863
upperback 1.66845 2.77576 -0.847571
thorax -5.13048 1.37127 0.344764
lowerneck -16.8515 6.14535 -7.35378
upperneck 40.7745 9.15213 2.15075
head 17.3076 2.14154 3.7615
rclavicle 2.38542e-015 -1.03368e-014
rhumerus -39.5547 -18.7311 -75.7972
rradius 38.8591
rwrist 5.63802
rhand -16.9821 10.66
rfingers 7.12502
rthumb 9.2526 -19.1169
lclavicle 2.38542e-015 -1.03368e-014
lhumerus -30.8742 3.28501 78.013
lradius 40.1976
lwrist 2.13763
lhand -22.8201 21.8766
lfingers 7.12502
lthumb 3.61684 51.8257
rfemur -17.0383 2.71881 15.1212
rtibia 43.1809
rfoot -23.0147 -8.63797
rtoes 1.83535
lfemur -10.1034 2.17085 -25.5728
ltibia 24.5503
lfoot -14.1471 -11.5445
ltoes -5.00802
3522
root -0.622487 17.6339 -0.457066 193.681 -57.8982 525.572
lowerback 12.0654 2.53981 -2.69962
upperback 1.70934 2.85978 -0.935899
thorax -5.05163 1.40497 0.0793906
lowerneck -16.9125 6.16673 -7.53306
upperneck 41.0351 9.16522 2.33532
head 17.4398 2.1175 3.88999
rclavicle -3.88624e-014 7.95139e-015
rhumerus -39.4907 -18.605 -75.9014
rradius 38.6139
rwrist 5.30636
rhand -16.475 10.3509
rfingers 7.12502
rthumb 9.74185 -19.4038
lclavicle -3.88624e-014 7.95139e-015
lhumerus -30.7825 3.63567 77.7512
lradius 40.0185
lwrist 1.72167
lhand -22.4827 21.6283
lfingers 7.12502
lthumb 3.9427 51.5716
rfemur -16.8296 3.2981 15.064
rtibia 42.9723
rfoot -22.6423 -8.72803
rtoes 3.47398
lfemur -9.91742 2.37589 -25.6728
ltibia 24.586
lfoot -14.3131 -11.7072
ltoes -6.20497
